<mxfile host="app.diagrams.net" modified="2023-07-29T11:23:04.771Z" agent="Mozilla/5.0 (Windows NT 10.0; Win64; x64) AppleWebKit/537.36 (KHTML, like Gecko) Chrome/115.0.0.0 Safari/537.36" etag="RSpe18vXTp0PL518wKeu" version="21.6.5" type="device">
  <diagram id="R2lEEEUBdFMjLlhIrx00" name="Page-1">
    <mxGraphModel dx="5050" dy="3236" grid="1" gridSize="10" guides="1" tooltips="1" connect="1" arrows="1" fold="1" page="1" pageScale="1" pageWidth="850" pageHeight="1100" math="0" shadow="0" extFonts="Permanent Marker^https://fonts.googleapis.com/css?family=Permanent+Marker">
      <root>
        <mxCell id="0" />
        <mxCell id="1" parent="0" />
        <mxCell id="x4fKw-adO7Pq0WVxAq-u-1" value="" style="rounded=0;whiteSpace=wrap;html=1;strokeWidth=3;" parent="1" vertex="1">
          <mxGeometry x="-150" y="-430" width="2590" height="1850" as="geometry" />
        </mxCell>
        <mxCell id="x4fKw-adO7Pq0WVxAq-u-10" style="edgeStyle=orthogonalEdgeStyle;rounded=0;orthogonalLoop=1;jettySize=auto;html=1;exitX=0.75;exitY=1;exitDx=0;exitDy=0;entryX=0;entryY=0.5;entryDx=0;entryDy=0;strokeWidth=6;" parent="1" source="x4fKw-adO7Pq0WVxAq-u-4" target="x4fKw-adO7Pq0WVxAq-u-9" edge="1">
          <mxGeometry relative="1" as="geometry" />
        </mxCell>
        <mxCell id="x4fKw-adO7Pq0WVxAq-u-40" style="edgeStyle=orthogonalEdgeStyle;rounded=0;orthogonalLoop=1;jettySize=auto;html=1;exitX=0.75;exitY=0;exitDx=0;exitDy=0;entryX=0;entryY=0.25;entryDx=0;entryDy=0;strokeWidth=5;" parent="1" source="x4fKw-adO7Pq0WVxAq-u-4" target="x4fKw-adO7Pq0WVxAq-u-14" edge="1">
          <mxGeometry relative="1" as="geometry" />
        </mxCell>
        <mxCell id="x4fKw-adO7Pq0WVxAq-u-44" style="edgeStyle=orthogonalEdgeStyle;rounded=0;orthogonalLoop=1;jettySize=auto;html=1;exitX=1;exitY=0.5;exitDx=0;exitDy=0;entryX=0;entryY=0.5;entryDx=0;entryDy=0;strokeWidth=4;" parent="1" source="x4fKw-adO7Pq0WVxAq-u-4" target="x4fKw-adO7Pq0WVxAq-u-20" edge="1">
          <mxGeometry relative="1" as="geometry" />
        </mxCell>
        <mxCell id="x4fKw-adO7Pq0WVxAq-u-46" style="edgeStyle=orthogonalEdgeStyle;rounded=0;orthogonalLoop=1;jettySize=auto;html=1;exitX=0.75;exitY=1;exitDx=0;exitDy=0;entryX=0;entryY=0.5;entryDx=0;entryDy=0;fillColor=#e51400;strokeColor=#B20000;strokeWidth=5;" parent="1" source="x4fKw-adO7Pq0WVxAq-u-4" target="x4fKw-adO7Pq0WVxAq-u-22" edge="1">
          <mxGeometry relative="1" as="geometry" />
        </mxCell>
        <mxCell id="x4fKw-adO7Pq0WVxAq-u-47" style="edgeStyle=orthogonalEdgeStyle;rounded=0;orthogonalLoop=1;jettySize=auto;html=1;exitX=0.75;exitY=1;exitDx=0;exitDy=0;entryX=0;entryY=0.5;entryDx=0;entryDy=0;strokeWidth=7;" parent="1" source="x4fKw-adO7Pq0WVxAq-u-4" target="x4fKw-adO7Pq0WVxAq-u-37" edge="1">
          <mxGeometry relative="1" as="geometry" />
        </mxCell>
        <mxCell id="x4fKw-adO7Pq0WVxAq-u-50" style="edgeStyle=orthogonalEdgeStyle;rounded=0;orthogonalLoop=1;jettySize=auto;html=1;exitX=0.75;exitY=0;exitDx=0;exitDy=0;entryX=0;entryY=0.25;entryDx=0;entryDy=0;strokeWidth=6;" parent="1" source="x4fKw-adO7Pq0WVxAq-u-4" target="x4fKw-adO7Pq0WVxAq-u-17" edge="1">
          <mxGeometry relative="1" as="geometry" />
        </mxCell>
        <mxCell id="x4fKw-adO7Pq0WVxAq-u-51" style="edgeStyle=orthogonalEdgeStyle;rounded=0;orthogonalLoop=1;jettySize=auto;html=1;exitX=0.75;exitY=0;exitDx=0;exitDy=0;entryX=0;entryY=0.25;entryDx=0;entryDy=0;strokeWidth=6;" parent="1" source="x4fKw-adO7Pq0WVxAq-u-4" target="x4fKw-adO7Pq0WVxAq-u-18" edge="1">
          <mxGeometry relative="1" as="geometry" />
        </mxCell>
        <mxCell id="x4fKw-adO7Pq0WVxAq-u-52" style="edgeStyle=orthogonalEdgeStyle;rounded=0;orthogonalLoop=1;jettySize=auto;html=1;exitX=0.75;exitY=1;exitDx=0;exitDy=0;entryX=0;entryY=0.5;entryDx=0;entryDy=0;strokeWidth=6;" parent="1" source="x4fKw-adO7Pq0WVxAq-u-4" target="x4fKw-adO7Pq0WVxAq-u-19" edge="1">
          <mxGeometry relative="1" as="geometry" />
        </mxCell>
        <mxCell id="x4fKw-adO7Pq0WVxAq-u-4" value="" style="shape=ext;double=1;rounded=1;whiteSpace=wrap;html=1;fillColor=#647687;fontColor=#ffffff;strokeColor=#314354;" parent="1" vertex="1">
          <mxGeometry x="-10" y="390" width="350" height="142.5" as="geometry" />
        </mxCell>
        <mxCell id="x4fKw-adO7Pq0WVxAq-u-6" value="Main Package" style="text;strokeColor=none;fillColor=none;html=1;fontSize=24;fontStyle=1;verticalAlign=middle;align=center;" parent="1" vertex="1">
          <mxGeometry x="40" y="427.5" width="230" height="85" as="geometry" />
        </mxCell>
        <mxCell id="gpgjROYQm-y-fQIbH3Le-17" value="" style="edgeStyle=orthogonalEdgeStyle;rounded=0;orthogonalLoop=1;jettySize=auto;html=1;strokeWidth=6;" edge="1" parent="1" source="x4fKw-adO7Pq0WVxAq-u-9" target="gpgjROYQm-y-fQIbH3Le-16">
          <mxGeometry relative="1" as="geometry" />
        </mxCell>
        <mxCell id="x4fKw-adO7Pq0WVxAq-u-9" value="&lt;font style=&quot;font-size: 24px;&quot;&gt;&lt;b&gt;Main Class&lt;/b&gt;&lt;/font&gt;" style="rounded=0;whiteSpace=wrap;html=1;" parent="1" vertex="1">
          <mxGeometry x="660" y="1260" width="170" height="120" as="geometry" />
        </mxCell>
        <mxCell id="gpgjROYQm-y-fQIbH3Le-23" value="" style="edgeStyle=orthogonalEdgeStyle;rounded=0;orthogonalLoop=1;jettySize=auto;html=1;" edge="1" parent="1" source="x4fKw-adO7Pq0WVxAq-u-14" target="gpgjROYQm-y-fQIbH3Le-22">
          <mxGeometry relative="1" as="geometry" />
        </mxCell>
        <mxCell id="x4fKw-adO7Pq0WVxAq-u-14" value="" style="rounded=0;whiteSpace=wrap;html=1;fillColor=#bac8d3;strokeColor=#23445d;" parent="1" vertex="1">
          <mxGeometry x="645" y="-245" width="305" height="95" as="geometry" />
        </mxCell>
        <mxCell id="x4fKw-adO7Pq0WVxAq-u-15" value="Models" style="text;strokeColor=none;fillColor=none;html=1;fontSize=24;fontStyle=1;verticalAlign=middle;align=center;" parent="1" vertex="1">
          <mxGeometry x="690" y="-230" width="150" height="50" as="geometry" />
        </mxCell>
        <mxCell id="gpgjROYQm-y-fQIbH3Le-24" style="edgeStyle=orthogonalEdgeStyle;rounded=0;orthogonalLoop=1;jettySize=auto;html=1;entryX=0;entryY=0.75;entryDx=0;entryDy=0;strokeWidth=3;" edge="1" parent="1" target="gpgjROYQm-y-fQIbH3Le-6">
          <mxGeometry relative="1" as="geometry">
            <mxPoint x="940" y="10" as="sourcePoint" />
          </mxGeometry>
        </mxCell>
        <mxCell id="gpgjROYQm-y-fQIbH3Le-25" style="edgeStyle=orthogonalEdgeStyle;rounded=0;orthogonalLoop=1;jettySize=auto;html=1;exitX=1;exitY=0.5;exitDx=0;exitDy=0;entryX=0;entryY=0.5;entryDx=0;entryDy=0;entryPerimeter=0;strokeWidth=3;" edge="1" parent="1" source="x4fKw-adO7Pq0WVxAq-u-17" target="gpgjROYQm-y-fQIbH3Le-1">
          <mxGeometry relative="1" as="geometry">
            <Array as="points">
              <mxPoint x="1046" y="10" />
              <mxPoint x="1046" y="30" />
              <mxPoint x="1143" y="30" />
            </Array>
          </mxGeometry>
        </mxCell>
        <mxCell id="x4fKw-adO7Pq0WVxAq-u-17" value="" style="rounded=0;whiteSpace=wrap;html=1;fillColor=#ffcccc;strokeColor=#36393d;" parent="1" vertex="1">
          <mxGeometry x="645" y="-40" width="305" height="100" as="geometry" />
        </mxCell>
        <mxCell id="gpgjROYQm-y-fQIbH3Le-27" style="edgeStyle=orthogonalEdgeStyle;rounded=0;orthogonalLoop=1;jettySize=auto;html=1;exitX=1;exitY=0.5;exitDx=0;exitDy=0;entryX=0;entryY=0.25;entryDx=0;entryDy=0;strokeWidth=6;fillColor=#0050ef;strokeColor=#001DBC;" edge="1" parent="1" source="x4fKw-adO7Pq0WVxAq-u-18" target="x4fKw-adO7Pq0WVxAq-u-77">
          <mxGeometry relative="1" as="geometry" />
        </mxCell>
        <mxCell id="gpgjROYQm-y-fQIbH3Le-28" style="edgeStyle=orthogonalEdgeStyle;rounded=0;orthogonalLoop=1;jettySize=auto;html=1;exitX=1;exitY=0.5;exitDx=0;exitDy=0;entryX=0;entryY=0.5;entryDx=0;entryDy=0;strokeWidth=6;fillColor=#d80073;strokeColor=#A50040;" edge="1" parent="1" source="x4fKw-adO7Pq0WVxAq-u-18" target="x4fKw-adO7Pq0WVxAq-u-76">
          <mxGeometry relative="1" as="geometry" />
        </mxCell>
        <mxCell id="x4fKw-adO7Pq0WVxAq-u-18" value="" style="rounded=0;whiteSpace=wrap;html=1;fillColor=#76608a;strokeColor=#432D57;fontColor=#ffffff;" parent="1" vertex="1">
          <mxGeometry x="645" y="200" width="305" height="100" as="geometry" />
        </mxCell>
        <mxCell id="gpgjROYQm-y-fQIbH3Le-33" style="edgeStyle=orthogonalEdgeStyle;rounded=0;orthogonalLoop=1;jettySize=auto;html=1;exitX=1;exitY=0.5;exitDx=0;exitDy=0;entryX=0;entryY=0.5;entryDx=0;entryDy=0;strokeWidth=5;" edge="1" parent="1" source="x4fKw-adO7Pq0WVxAq-u-19" target="x4fKw-adO7Pq0WVxAq-u-69">
          <mxGeometry relative="1" as="geometry" />
        </mxCell>
        <mxCell id="gpgjROYQm-y-fQIbH3Le-34" style="edgeStyle=orthogonalEdgeStyle;rounded=0;orthogonalLoop=1;jettySize=auto;html=1;exitX=1;exitY=0.5;exitDx=0;exitDy=0;entryX=0;entryY=0.25;entryDx=0;entryDy=0;strokeWidth=4;" edge="1" parent="1" source="x4fKw-adO7Pq0WVxAq-u-19" target="x4fKw-adO7Pq0WVxAq-u-70">
          <mxGeometry relative="1" as="geometry">
            <Array as="points">
              <mxPoint x="1029" y="655" />
              <mxPoint x="1029" y="660" />
              <mxPoint x="1108" y="660" />
            </Array>
          </mxGeometry>
        </mxCell>
        <mxCell id="x4fKw-adO7Pq0WVxAq-u-19" value="" style="rounded=0;whiteSpace=wrap;html=1;" parent="1" vertex="1">
          <mxGeometry x="645" y="600" width="305" height="110" as="geometry" />
        </mxCell>
        <mxCell id="gpgjROYQm-y-fQIbH3Le-30" style="edgeStyle=orthogonalEdgeStyle;rounded=0;orthogonalLoop=1;jettySize=auto;html=1;exitX=1;exitY=0.5;exitDx=0;exitDy=0;entryX=0;entryY=0.5;entryDx=0;entryDy=0;strokeWidth=6;" edge="1" parent="1" source="x4fKw-adO7Pq0WVxAq-u-20" target="gpgjROYQm-y-fQIbH3Le-9">
          <mxGeometry relative="1" as="geometry">
            <Array as="points">
              <mxPoint x="950" y="460" />
              <mxPoint x="1028" y="460" />
              <mxPoint x="1028" y="480" />
            </Array>
          </mxGeometry>
        </mxCell>
        <mxCell id="gpgjROYQm-y-fQIbH3Le-32" style="edgeStyle=orthogonalEdgeStyle;rounded=0;orthogonalLoop=1;jettySize=auto;html=1;exitX=1;exitY=0.5;exitDx=0;exitDy=0;entryX=0;entryY=0.5;entryDx=0;entryDy=0;strokeWidth=6;" edge="1" parent="1" source="x4fKw-adO7Pq0WVxAq-u-20" target="gpgjROYQm-y-fQIbH3Le-8">
          <mxGeometry relative="1" as="geometry" />
        </mxCell>
        <mxCell id="x4fKw-adO7Pq0WVxAq-u-20" value="" style="rounded=0;whiteSpace=wrap;html=1;fillColor=#ffcc99;strokeColor=#36393d;" parent="1" vertex="1">
          <mxGeometry x="645" y="400" width="305" height="100" as="geometry" />
        </mxCell>
        <mxCell id="gpgjROYQm-y-fQIbH3Le-35" style="edgeStyle=orthogonalEdgeStyle;rounded=0;orthogonalLoop=1;jettySize=auto;html=1;exitX=1;exitY=0.5;exitDx=0;exitDy=0;entryX=0;entryY=0.5;entryDx=0;entryDy=0;strokeWidth=4;" edge="1" parent="1" source="x4fKw-adO7Pq0WVxAq-u-22" target="x4fKw-adO7Pq0WVxAq-u-59">
          <mxGeometry relative="1" as="geometry" />
        </mxCell>
        <mxCell id="gpgjROYQm-y-fQIbH3Le-36" style="edgeStyle=orthogonalEdgeStyle;rounded=0;orthogonalLoop=1;jettySize=auto;html=1;exitX=1;exitY=0.5;exitDx=0;exitDy=0;entryX=0;entryY=0.5;entryDx=0;entryDy=0;entryPerimeter=0;strokeWidth=4;" edge="1" parent="1" source="x4fKw-adO7Pq0WVxAq-u-22" target="x4fKw-adO7Pq0WVxAq-u-65">
          <mxGeometry relative="1" as="geometry" />
        </mxCell>
        <mxCell id="gpgjROYQm-y-fQIbH3Le-37" style="edgeStyle=orthogonalEdgeStyle;rounded=0;orthogonalLoop=1;jettySize=auto;html=1;exitX=1;exitY=0.5;exitDx=0;exitDy=0;entryX=0;entryY=0.5;entryDx=0;entryDy=0;strokeWidth=5;" edge="1" parent="1" source="x4fKw-adO7Pq0WVxAq-u-22" target="x4fKw-adO7Pq0WVxAq-u-61">
          <mxGeometry relative="1" as="geometry" />
        </mxCell>
        <mxCell id="x4fKw-adO7Pq0WVxAq-u-22" value="" style="rounded=0;whiteSpace=wrap;html=1;fillColor=#f8cecc;gradientColor=#ea6b66;strokeColor=#b85450;" parent="1" vertex="1">
          <mxGeometry x="645" y="800" width="305" height="100" as="geometry" />
        </mxCell>
        <mxCell id="x4fKw-adO7Pq0WVxAq-u-24" value="Config" style="text;strokeColor=none;fillColor=none;html=1;fontSize=24;fontStyle=1;verticalAlign=middle;align=center;" parent="1" vertex="1">
          <mxGeometry x="690" y="825" width="150" height="50" as="geometry" />
        </mxCell>
        <mxCell id="x4fKw-adO7Pq0WVxAq-u-25" value="Authentication" style="text;strokeColor=none;fillColor=none;html=1;fontSize=24;fontStyle=1;verticalAlign=middle;align=center;" parent="1" vertex="1">
          <mxGeometry x="710" y="640" width="150" height="50" as="geometry" />
        </mxCell>
        <mxCell id="x4fKw-adO7Pq0WVxAq-u-26" value="Exceptions" style="text;strokeColor=none;fillColor=none;html=1;fontSize=24;fontStyle=1;verticalAlign=middle;align=center;" parent="1" vertex="1">
          <mxGeometry x="700" y="427.5" width="150" height="50" as="geometry" />
        </mxCell>
        <mxCell id="x4fKw-adO7Pq0WVxAq-u-27" value="Services" style="text;strokeColor=none;fillColor=none;html=1;fontSize=24;fontStyle=1;verticalAlign=middle;align=center;" parent="1" vertex="1">
          <mxGeometry x="700" y="225" width="150" height="50" as="geometry" />
        </mxCell>
        <mxCell id="x4fKw-adO7Pq0WVxAq-u-28" value="Repositories" style="text;strokeColor=none;fillColor=none;html=1;fontSize=24;fontStyle=1;verticalAlign=middle;align=center;" parent="1" vertex="1">
          <mxGeometry x="710" y="-20" width="150" height="50" as="geometry" />
        </mxCell>
        <mxCell id="x4fKw-adO7Pq0WVxAq-u-30" value="" style="verticalAlign=top;verticalLabelPosition=bottom;labelPosition=center;align=center;html=1;outlineConnect=0;fillColor=#d5e8d4;strokeColor=#82b366;gradientColor=#97d077;gradientDirection=north;strokeWidth=2;shape=mxgraph.networks.unsecure;" parent="1" vertex="1">
          <mxGeometry x="872.5" y="640" width="37.5" height="42.5" as="geometry" />
        </mxCell>
        <mxCell id="x4fKw-adO7Pq0WVxAq-u-31" value="" style="verticalLabelPosition=bottom;verticalAlign=top;html=1;shape=mxgraph.basic.x;fillColor=#a20025;strokeColor=#6F0000;fontColor=#ffffff;" parent="1" vertex="1">
          <mxGeometry x="860" y="437" width="37.5" height="31" as="geometry" />
        </mxCell>
        <mxCell id="x4fKw-adO7Pq0WVxAq-u-32" value="" style="shape=image;html=1;verticalLabelPosition=bottom;verticalAlign=top;imageAspect=1;aspect=fixed;image=img/clipart/Gear_128x128.png" parent="1" vertex="1">
          <mxGeometry x="834" y="825" width="52" height="61" as="geometry" />
        </mxCell>
        <mxCell id="x4fKw-adO7Pq0WVxAq-u-33" value="" style="verticalAlign=top;verticalLabelPosition=bottom;labelPosition=center;align=center;html=1;outlineConnect=0;fillColor=none;gradientDirection=north;strokeWidth=2;shape=mxgraph.networks.storage;" parent="1" vertex="1">
          <mxGeometry x="872.5" y="-17.5" width="30" height="45" as="geometry" />
        </mxCell>
        <mxCell id="x4fKw-adO7Pq0WVxAq-u-36" value="" style="fontColor=#0066CC;verticalAlign=top;verticalLabelPosition=bottom;labelPosition=center;align=center;html=1;outlineConnect=0;fillColor=#CCCCCC;strokeColor=#6881B3;gradientColor=none;gradientDirection=north;strokeWidth=2;shape=mxgraph.networks.community;" parent="1" vertex="1">
          <mxGeometry x="834" y="-230" width="46" height="50" as="geometry" />
        </mxCell>
        <mxCell id="gpgjROYQm-y-fQIbH3Le-38" style="edgeStyle=orthogonalEdgeStyle;rounded=0;orthogonalLoop=1;jettySize=auto;html=1;exitX=1;exitY=0.5;exitDx=0;exitDy=0;entryX=0;entryY=0.5;entryDx=0;entryDy=0;strokeWidth=5;" edge="1" parent="1" source="x4fKw-adO7Pq0WVxAq-u-37" target="gpgjROYQm-y-fQIbH3Le-12">
          <mxGeometry relative="1" as="geometry" />
        </mxCell>
        <mxCell id="gpgjROYQm-y-fQIbH3Le-39" style="edgeStyle=orthogonalEdgeStyle;rounded=0;orthogonalLoop=1;jettySize=auto;html=1;exitX=1;exitY=0.5;exitDx=0;exitDy=0;entryX=0;entryY=0.5;entryDx=0;entryDy=0;strokeWidth=5;" edge="1" parent="1" source="x4fKw-adO7Pq0WVxAq-u-37" target="gpgjROYQm-y-fQIbH3Le-13">
          <mxGeometry relative="1" as="geometry">
            <Array as="points">
              <mxPoint x="1025" y="1070" />
              <mxPoint x="1025" y="1105" />
            </Array>
          </mxGeometry>
        </mxCell>
        <mxCell id="x4fKw-adO7Pq0WVxAq-u-37" value="" style="rounded=0;whiteSpace=wrap;html=1;fillColor=#f9f7ed;strokeColor=#36393d;" parent="1" vertex="1">
          <mxGeometry x="645" y="1020" width="305" height="100" as="geometry" />
        </mxCell>
        <mxCell id="x4fKw-adO7Pq0WVxAq-u-38" value="Controllers" style="text;strokeColor=none;fillColor=none;html=1;fontSize=24;fontStyle=1;verticalAlign=middle;align=center;" parent="1" vertex="1">
          <mxGeometry x="684" y="1040" width="150" height="50" as="geometry" />
        </mxCell>
        <mxCell id="x4fKw-adO7Pq0WVxAq-u-39" value="" style="verticalAlign=top;verticalLabelPosition=bottom;labelPosition=center;align=center;html=1;outlineConnect=0;fillColor=#fa6800;strokeColor=#C73500;gradientDirection=north;strokeWidth=2;shape=mxgraph.networks.radio_tower;fontColor=#000000;" parent="1" vertex="1">
          <mxGeometry x="855" y="1040" width="35" height="60" as="geometry" />
        </mxCell>
        <mxCell id="x4fKw-adO7Pq0WVxAq-u-49" value="" style="html=1;whiteSpace=wrap;shape=isoCube2;backgroundOutline=1;isoAngle=15;" parent="1" vertex="1">
          <mxGeometry x="240" y="440" width="70" height="60" as="geometry" />
        </mxCell>
        <mxCell id="x4fKw-adO7Pq0WVxAq-u-54" value="" style="fontColor=#0066CC;verticalAlign=top;verticalLabelPosition=bottom;labelPosition=center;align=center;html=1;outlineConnect=0;fillColor=#CCCCCC;strokeColor=#6881B3;gradientColor=none;gradientDirection=north;strokeWidth=2;shape=mxgraph.networks.hub;" parent="1" vertex="1">
          <mxGeometry x="834" y="245" width="100" height="30" as="geometry" />
        </mxCell>
        <mxCell id="x4fKw-adO7Pq0WVxAq-u-62" value="" style="shape=note;whiteSpace=wrap;html=1;backgroundOutline=1;darkOpacity=0.05;fillColor=#eeeeee;strokeColor=#36393d;" parent="1" vertex="1">
          <mxGeometry x="1107.5" y="750" width="202.5" height="40" as="geometry" />
        </mxCell>
        <mxCell id="x4fKw-adO7Pq0WVxAq-u-59" value="AppConfig" style="text;html=1;fontSize=24;fontStyle=1;verticalAlign=middle;align=center;" parent="1" vertex="1">
          <mxGeometry x="1123.13" y="750" width="103.75" height="40" as="geometry" />
        </mxCell>
        <mxCell id="x4fKw-adO7Pq0WVxAq-u-65" value="" style="shape=note;whiteSpace=wrap;html=1;backgroundOutline=1;darkOpacity=0.05;fillColor=#f9f7ed;strokeColor=#36393d;" parent="1" vertex="1">
          <mxGeometry x="1107.5" y="818.25" width="205" height="34.5" as="geometry" />
        </mxCell>
        <mxCell id="x4fKw-adO7Pq0WVxAq-u-66" value="" style="shape=note;whiteSpace=wrap;html=1;backgroundOutline=1;darkOpacity=0.05;fillColor=#ffcc99;strokeColor=#36393d;" parent="1" vertex="1">
          <mxGeometry x="1107.5" y="875" width="202.5" height="30" as="geometry" />
        </mxCell>
        <mxCell id="x4fKw-adO7Pq0WVxAq-u-61" value="JWT Config" style="text;strokeColor=none;fillColor=none;html=1;fontSize=24;fontStyle=1;verticalAlign=middle;align=center;" parent="1" vertex="1">
          <mxGeometry x="1126.88" y="870" width="100" height="40" as="geometry" />
        </mxCell>
        <mxCell id="x4fKw-adO7Pq0WVxAq-u-60" value="SecurityConfig" style="text;strokeColor=none;fillColor=none;html=1;fontSize=24;fontStyle=1;verticalAlign=middle;align=center;" parent="1" vertex="1">
          <mxGeometry x="1125" y="815.5" width="170" height="40" as="geometry" />
        </mxCell>
        <mxCell id="x4fKw-adO7Pq0WVxAq-u-69" value="" style="rounded=1;whiteSpace=wrap;html=1;fillColor=#dae8fc;strokeColor=#6c8ebf;" parent="1" vertex="1">
          <mxGeometry x="1108" y="580" width="162" height="40" as="geometry" />
        </mxCell>
        <mxCell id="x4fKw-adO7Pq0WVxAq-u-70" value="" style="rounded=1;whiteSpace=wrap;html=1;fillColor=#d5e8d4;strokeColor=#82b366;" parent="1" vertex="1">
          <mxGeometry x="1108" y="660" width="162" height="40" as="geometry" />
        </mxCell>
        <mxCell id="x4fKw-adO7Pq0WVxAq-u-71" value="Requests" style="text;strokeColor=none;fillColor=none;html=1;fontSize=24;fontStyle=1;verticalAlign=middle;align=center;" parent="1" vertex="1">
          <mxGeometry x="1123.13" y="580" width="100" height="40" as="geometry" />
        </mxCell>
        <mxCell id="x4fKw-adO7Pq0WVxAq-u-72" value="Responses" style="text;strokeColor=none;fillColor=none;html=1;fontSize=24;fontStyle=1;verticalAlign=middle;align=center;" parent="1" vertex="1">
          <mxGeometry x="1125.0100000000002" y="660" width="100" height="40" as="geometry" />
        </mxCell>
        <mxCell id="x4fKw-adO7Pq0WVxAq-u-75" value="" style="rounded=1;whiteSpace=wrap;html=1;fillColor=#fff2cc;strokeColor=#d6b656;" parent="1" vertex="1">
          <mxGeometry x="1106.88" y="200" width="161.87" height="40" as="geometry" />
        </mxCell>
        <mxCell id="x4fKw-adO7Pq0WVxAq-u-76" value="" style="rounded=1;whiteSpace=wrap;html=1;fillColor=#1ba1e2;fontColor=#ffffff;strokeColor=#006EAF;" parent="1" vertex="1">
          <mxGeometry x="1106.88" y="270" width="161.87" height="40" as="geometry" />
        </mxCell>
        <mxCell id="x4fKw-adO7Pq0WVxAq-u-77" value="&lt;font style=&quot;font-size: 22px;&quot;&gt;Interfaces&lt;/font&gt;" style="text;strokeColor=none;fillColor=none;html=1;fontSize=24;fontStyle=1;verticalAlign=middle;align=center;" parent="1" vertex="1">
          <mxGeometry x="1106.88" y="200" width="120" height="40" as="geometry" />
        </mxCell>
        <mxCell id="x4fKw-adO7Pq0WVxAq-u-78" value="Implements" style="text;html=1;fontSize=24;fontStyle=1;verticalAlign=middle;align=center;" parent="1" vertex="1">
          <mxGeometry x="1126.88" y="275" width="100" height="40" as="geometry" />
        </mxCell>
        <mxCell id="gpgjROYQm-y-fQIbH3Le-1" value="" style="fontColor=#ffffff;verticalAlign=top;verticalLabelPosition=bottom;labelPosition=center;align=center;html=1;outlineConnect=0;fillColor=#008a00;strokeColor=#005700;gradientDirection=north;strokeWidth=2;shape=mxgraph.networks.storage;" vertex="1" parent="1">
          <mxGeometry x="1142.88" y="10" width="48" height="50" as="geometry" />
        </mxCell>
        <mxCell id="gpgjROYQm-y-fQIbH3Le-3" value="Postgres db" style="text;strokeColor=none;fillColor=none;html=1;fontSize=24;fontStyle=1;verticalAlign=middle;align=center;" vertex="1" parent="1">
          <mxGeometry x="1139" y="60" width="100" height="40" as="geometry" />
        </mxCell>
        <mxCell id="gpgjROYQm-y-fQIbH3Le-6" value="" style="shape=step;perimeter=stepPerimeter;whiteSpace=wrap;html=1;fixedSize=1;fillColor=#d80073;strokeColor=#A50040;fontColor=#ffffff;" vertex="1" parent="1">
          <mxGeometry x="1096.25" y="-50" width="225" height="40" as="geometry" />
        </mxCell>
        <mxCell id="gpgjROYQm-y-fQIbH3Le-7" value="JpaRepository" style="text;strokeColor=#A50040;fillColor=#d80073;html=1;fontSize=24;fontStyle=1;verticalAlign=middle;align=center;fontColor=#ffffff;" vertex="1" parent="1">
          <mxGeometry x="1126.88" y="-50" width="153" height="40" as="geometry" />
        </mxCell>
        <mxCell id="gpgjROYQm-y-fQIbH3Le-8" value="" style="rounded=1;whiteSpace=wrap;html=1;fillColor=#fad9d5;strokeColor=#ae4132;" vertex="1" parent="1">
          <mxGeometry x="1106.88" y="390" width="162" height="40" as="geometry" />
        </mxCell>
        <mxCell id="gpgjROYQm-y-fQIbH3Le-9" value="" style="rounded=1;whiteSpace=wrap;html=1;fillColor=#dae8fc;strokeColor=#6c8ebf;" vertex="1" parent="1">
          <mxGeometry x="1106.88" y="460" width="162" height="40" as="geometry" />
        </mxCell>
        <mxCell id="gpgjROYQm-y-fQIbH3Le-10" value="Handler" style="text;strokeColor=none;fillColor=none;html=1;fontSize=24;fontStyle=1;verticalAlign=middle;align=center;" vertex="1" parent="1">
          <mxGeometry x="1142.88" y="390" width="77.12" height="40" as="geometry" />
        </mxCell>
        <mxCell id="gpgjROYQm-y-fQIbH3Le-11" value="Customer" style="text;strokeColor=none;fillColor=none;html=1;fontSize=24;fontStyle=1;verticalAlign=middle;align=center;" vertex="1" parent="1">
          <mxGeometry x="1129" y="460" width="100" height="40" as="geometry" />
        </mxCell>
        <mxCell id="gpgjROYQm-y-fQIbH3Le-12" value="" style="shape=ext;double=1;rounded=1;whiteSpace=wrap;html=1;fillColor=#d80073;fontColor=#ffffff;strokeColor=#A50040;" vertex="1" parent="1">
          <mxGeometry x="1100" y="1010" width="220" height="50" as="geometry" />
        </mxCell>
        <mxCell id="gpgjROYQm-y-fQIbH3Le-13" value="" style="shape=ext;double=1;rounded=1;whiteSpace=wrap;html=1;fillColor=#60a917;fontColor=#ffffff;strokeColor=#2D7600;" vertex="1" parent="1">
          <mxGeometry x="1100" y="1080" width="230" height="50" as="geometry" />
        </mxCell>
        <mxCell id="gpgjROYQm-y-fQIbH3Le-14" value="Endpoints checker" style="text;strokeColor=#A50040;fillColor=#d80073;html=1;fontSize=24;fontStyle=1;verticalAlign=middle;align=center;fontColor=#ffffff;" vertex="1" parent="1">
          <mxGeometry x="1146" y="1020" width="129" height="40" as="geometry" />
        </mxCell>
        <mxCell id="gpgjROYQm-y-fQIbH3Le-15" value="Responses&amp;nbsp;" style="text;strokeColor=none;fillColor=none;html=1;fontSize=24;fontStyle=1;verticalAlign=middle;align=center;" vertex="1" parent="1">
          <mxGeometry x="1146" y="1085" width="100" height="40" as="geometry" />
        </mxCell>
        <mxCell id="gpgjROYQm-y-fQIbH3Le-16" value="&lt;span style=&quot;font-size: 24px;&quot;&gt;&lt;b&gt;AppRunner&lt;/b&gt;&lt;/span&gt;" style="rounded=0;whiteSpace=wrap;html=1;" vertex="1" parent="1">
          <mxGeometry x="910" y="1260" width="170" height="120" as="geometry" />
        </mxCell>
        <mxCell id="gpgjROYQm-y-fQIbH3Le-18" value="&lt;font style=&quot;font-size: 18px;&quot;&gt;&lt;u&gt;&lt;i&gt;&lt;b&gt;AppRunner&lt;/b&gt;&lt;/i&gt;&lt;/u&gt;&lt;/font&gt;" style="html=1;whiteSpace=wrap;container=1;recursiveResize=0;collapsible=0;fillColor=#e3c800;fontColor=#000000;strokeColor=#B09500;" vertex="1" parent="1">
          <mxGeometry x="910" y="1285" width="170" height="70" as="geometry" />
        </mxCell>
        <mxCell id="gpgjROYQm-y-fQIbH3Le-19" value="" style="triangle;html=1;whiteSpace=wrap;" vertex="1" parent="gpgjROYQm-y-fQIbH3Le-18">
          <mxGeometry x="20" y="20" width="20" height="30" as="geometry" />
        </mxCell>
        <mxCell id="gpgjROYQm-y-fQIbH3Le-22" value="&lt;font size=&quot;1&quot; style=&quot;&quot;&gt;&lt;b style=&quot;font-size: 26px;&quot;&gt;Entities&lt;/b&gt;&lt;/font&gt;" style="rounded=0;whiteSpace=wrap;html=1;fillColor=#bac8d3;strokeColor=#23445d;" vertex="1" parent="1">
          <mxGeometry x="1030" y="-245" width="305" height="95" as="geometry" />
        </mxCell>
      </root>
    </mxGraphModel>
  </diagram>
</mxfile>
